<?xml version="1.0"?><svg width="200" height="80" viewBox="0 0 200 80" fill="none" xmlns="http://www.w3.org/2000/svg">
<path d="M64.6469 0C64.6469 0 45.199 1.36419 38.1138 21.827C38.1138 21.827 59.0275 24.3118 64.6469 0Z" fill="#82C147"/>
<path d="M145.81 24.799C150.257 24.799 154.214 26.3581 157.44 29.6224C160.713 32.8867 162.277 36.687 162.277 41.1206C162.277 45.6516 160.713 49.5006 157.44 52.6188C154.166 55.7856 150.354 57.3447 145.81 57.3447C141.266 57.3447 137.405 55.7856 134.18 52.6188C131.004 49.4519 129.343 45.6516 129.343 41.1206C129.343 36.687 130.906 32.7406 134.18 29.6224C137.405 26.3581 141.266 24.799 145.81 24.799ZM145.81 53.9342C149.377 53.9342 152.309 52.6675 154.899 50.1827C157.488 47.6979 158.661 44.6772 158.661 41.1206C158.661 37.564 157.342 34.6407 154.899 32.1072C152.309 29.525 149.377 28.3557 145.81 28.3557C142.243 28.3557 139.213 29.6224 136.721 32.1072C134.229 34.6894 132.959 37.6127 132.959 41.1693C132.959 44.7259 134.229 47.7467 136.721 50.2314C139.262 52.7649 142.243 53.9342 145.81 53.9342Z" fill="#203232"/>
<path d="M197.508 25.8709C199.169 31.084 200 36.1998 200 41.1206C200 46.4312 199.218 51.4495 197.508 56.2728H193.745C194.234 54.9087 194.527 53.7881 194.723 53.106C191.644 55.9805 187.931 57.4422 183.484 57.4422C178.94 57.4422 175.079 55.8831 171.854 52.7162C168.678 49.5493 167.017 45.7491 167.017 41.218C167.017 36.7844 168.581 32.838 171.854 29.7198C175.031 26.4555 178.94 24.8965 183.484 24.8965C187.833 24.8965 191.595 26.3581 194.723 29.3301C194.527 29.0377 194.43 28.648 194.332 28.3557C194.234 28.0633 194.136 27.6736 194.039 27.3812L197.508 25.8709ZM183.582 53.9342C187.149 53.9342 190.081 52.6675 192.67 50.1827C195.26 47.6979 196.433 44.6772 196.433 41.1206C196.433 37.5639 195.162 34.6407 192.67 32.0585C190.081 29.4762 187.149 28.3069 183.582 28.3069C180.015 28.3069 176.985 29.5737 174.493 32.0585C172.001 34.6407 170.731 37.5639 170.731 41.1206C170.731 44.6772 172.001 47.6979 174.493 50.1827C176.985 52.7649 180.064 53.9342 183.582 53.9342Z" fill="#203232"/>
<path d="M136.917 4.04385V0L104.715 18.0268L105.693 21.5834L136.917 4.04385Z" fill="#203232"/>
<path d="M31.7616 56.0779H28.0968C29.0741 51.0597 29.5627 45.944 29.5627 40.9257C29.5627 37.4665 28.2922 34.5432 25.8002 31.961C23.2104 29.3788 20.2786 28.112 16.7115 28.112C13.1444 28.112 10.1149 29.3788 7.6228 31.8636C5.22847 34.4458 3.95801 37.4178 3.95801 40.9257C3.95801 45.944 4.44665 51.0597 5.42393 56.0779H1.75913C0.781852 51.0597 0.293213 45.944 0.293213 40.9257C0.293213 35.5176 0.781852 30.207 1.85686 25.0913L5.42393 25.7734C5.03301 27.4299 4.83756 28.8429 4.73983 29.8173C8.01371 26.2606 11.9228 24.6041 16.7604 24.6041C21.207 24.6041 25.165 26.1632 28.39 29.4275C31.615 32.6918 33.2275 36.4921 33.2275 40.9257C33.2275 44.19 33.032 47.0158 32.7389 49.5006C32.3968 51.8879 32.1036 54.1291 31.7616 56.0779Z" fill="#203232"/>
<path d="M54.4832 53.7393C57.1707 53.7393 59.6139 52.9598 61.7639 51.4982C63.9139 50.0365 65.4287 48.039 66.406 45.7004L69.7776 47.0645C68.6048 50.134 66.6014 52.57 63.865 54.4702C61.0798 56.3216 58.0502 57.2473 54.5809 57.2473C50.0366 57.2473 46.1763 55.6882 42.9513 52.5213C39.7751 49.3057 38.1138 45.4568 38.1138 40.9257C38.1138 36.4921 39.6774 32.5457 42.9513 29.4275C46.1274 26.1632 49.9388 24.6041 54.4832 24.6041C58.4412 24.6041 61.9105 25.8709 64.8423 28.3556C67.823 30.8404 69.7776 33.8611 70.5594 37.5152C68.0673 39.3666 64.7446 41.4616 60.2002 43.7028C55.7536 45.8465 50.1343 47.162 43.4399 47.5518C44.5149 49.4032 46.1274 51.011 47.9843 52.1803C49.9388 53.1547 52.1377 53.7393 54.4832 53.7393ZM42.0717 43.8002C51.0627 43.7028 59.1252 41.0231 66.4548 35.9074C65.4776 33.6662 63.7673 31.6687 61.715 30.2071C59.565 28.7454 57.1707 27.9659 54.532 27.9659C50.965 27.9659 47.9354 29.2326 45.4434 31.7174C42.9513 34.2996 41.6808 37.2229 41.6808 40.7795C41.7297 42.0463 41.8763 43.0207 42.0717 43.8002Z" fill="#203232"/>
<path d="M91.7176 24.6041C96.1642 24.6041 100.122 26.1632 103.347 29.4275C106.621 32.6918 108.185 36.4921 108.185 40.9257C108.185 45.4567 106.621 49.3057 103.347 52.4239C100.073 55.5907 96.262 57.1498 91.7176 57.1498C87.1733 57.1498 83.313 55.5907 80.088 52.4239C76.9119 49.257 75.2505 45.4567 75.2505 40.9257C75.2505 36.4921 76.8141 32.5457 80.088 29.4275C83.313 26.1632 87.1733 24.6041 91.7176 24.6041ZM91.7176 53.7393C95.2847 53.7393 98.2165 52.4726 100.806 49.9878C103.396 47.503 104.569 44.4823 104.569 40.9257C104.569 37.369 103.298 34.4458 100.806 31.8636C98.2165 29.2813 95.2847 28.112 91.7176 28.112C88.1506 28.112 85.121 29.3788 82.6289 31.8636C80.1369 34.4458 78.9641 37.369 78.9641 40.9257C78.9641 44.4823 80.2346 47.503 82.7267 49.9878C85.1699 52.4726 88.1506 53.7393 91.7176 53.7393Z" fill="#203232"/>
<path d="M118.935 47.0646C118.935 50.6212 120.205 53.5445 122.697 56.1267H118.055C116.198 53.3496 115.27 50.3289 115.27 47.0646V8.18515H118.935V47.0646Z" fill="#203232"/>
<path d="M0 73.4238H4.7398V74.2034H0.781823V76.1522H4.44662V76.9317H0.879551V79.1729H4.83753V79.9525H0V73.4238Z" fill="#203232"/>
<path d="M8.01367 73.4227H9.28413L11.141 78.9281L12.9978 73.4227H14.2683V80H13.3887V76.151C13.3887 76.0536 13.3887 75.7613 13.3887 75.4689C13.3887 75.1766 13.3887 74.7869 13.3887 74.4945L11.5319 80H10.6523L8.79549 74.4945V74.6894V75.3715V76.0536V79.9026H8.01367V73.4227Z" fill="#203232"/>
<path d="M17.5911 73.4227H20.474C21.2559 73.4227 21.7445 73.6176 22.1354 74.1048C22.3309 74.3971 22.4286 74.6894 22.4286 75.0792C22.4286 75.469 22.3309 75.8587 22.0377 76.0536C21.94 76.1511 21.7445 76.3459 21.549 76.4434C21.8422 76.5408 22.1354 76.7357 22.3309 76.8331C22.624 77.1255 22.7218 77.5152 22.7218 78.0025C22.7218 78.3922 22.624 78.782 22.3309 79.1718C21.94 79.659 21.3536 79.9513 20.474 79.9513H17.6888V73.374H17.5911V73.4227ZM20.132 76.1998C20.5229 76.1998 20.8161 76.1023 21.0115 76.0049C21.3047 75.81 21.5002 75.5177 21.5002 75.1279C21.5002 74.7381 21.3047 74.4458 21.0115 74.2509C20.8161 74.1535 20.5229 74.1535 20.132 74.1535H18.5683V76.1998H20.132ZM20.4252 79.2205C21.0115 79.2205 21.4024 79.0256 21.5979 78.7333C21.6956 78.5384 21.7934 78.3435 21.7934 78.0512C21.7934 77.564 21.5979 77.2716 21.1093 77.0768C20.9138 76.9793 20.6206 76.9793 20.2297 76.9793H18.4706V79.2205H20.4252Z" fill="#203232"/>
<path d="M25.7512 73.4227H30.491V74.2022H26.533V76.151H30.1978V76.9306H26.6308V79.1717H30.5887V79.9513H25.7512V73.4227Z" fill="#203232"/>
<path d="M33.9604 73.4226H34.84V79.2204H38.1139V80H33.9604V73.4226Z" fill="#203232"/>
<path d="M41.7297 73.4226H42.6093V79.2204H45.8832V80H41.7297V73.4226Z" fill="#203232"/>
<path d="M49.7434 73.4226H50.623V80H49.7434V73.4226Z" fill="#203232"/>
<path d="M59.7118 73.4226V74.2022H57.5618V80H56.6822V74.2022H54.5322V73.4226H59.7118Z" fill="#203232"/>
<path d="M70.6572 73.4226H71.5368V79.2204H74.8107V80H70.6572V73.4226Z" fill="#203232"/>
<path d="M81.2606 73.4226H82.2379L84.5834 80H83.6061L82.922 78.0511H80.3322L79.6481 80H78.7686L81.2606 73.4226ZM82.7265 77.2716L81.7493 74.3971L80.6743 77.2716H82.7265Z" fill="#203232"/>
<path d="M93.4768 73.4226L95.3336 79.0255L97.1904 73.4226H98.1677L95.8223 80H94.845L92.4995 73.4226H93.4768Z" fill="#203232"/>
<path d="M102.077 73.4226H102.956V80H102.077V73.4226Z" fill="#203232"/>
<path d="M106.426 73.4226H107.305V79.2204H110.579V80H106.426V73.4226Z" fill="#203232"/>
<path d="M113.413 73.4226H114.293V79.2204H117.567V80H113.413V73.4226Z" fill="#203232"/>
<path d="M119.912 73.4226H124.652V74.2022H120.694V76.151H124.359V76.9305H120.694V79.1717H124.652V79.9513H119.814L119.912 73.4226Z" fill="#203232"/>
<path d="M136.135 73.4226H140.875V74.2022H136.917V76.151H140.581V76.9305H136.917V79.1717H140.875V79.9513H136.037L136.135 73.4226Z" fill="#203232"/>
<path d="M148.839 73.4226V74.2022H146.689V80H145.81V74.2022H143.66V73.4226H148.839Z" fill="#203232"/>
<path d="M158.71 73.4226H159.59V79.2204H162.863V80H158.71V73.4226Z" fill="#203232"/>
<path d="M169.265 73.4226H170.242L172.587 80H171.61L170.926 78.0511H168.336L167.652 80H166.772L169.265 73.4226ZM170.779 77.2716L169.802 74.3971L168.727 77.2716H170.779Z" fill="#203232"/>
<path d="M181.53 73.4226L183.386 79.0255L185.243 73.4226H186.22L183.875 80H182.898L180.552 73.4226H181.53Z" fill="#203232"/>
<path d="M190.129 73.4226H191.009V80H190.129V73.4226Z" fill="#203232"/>
<path d="M195.26 73.4226H200V74.2022H196.042V76.151H199.707V76.9305H196.042V79.1717H200V79.9513H195.162L195.26 73.4226Z" fill="#203232"/>
</svg>
