<svg xmlns="http://www.w3.org/2000/svg" width="512" height="512" viewBox="0 0 512 512" fill="none">
  <rect width="512" height="512" rx="64" fill="#0C1F3F"/>
  <g transform="translate(142, 100) scale(4)">
    <circle cx="28" cy="29" r="26" stroke="white" stroke-width="1.3" fill="none"/>
    <path d="M34 15 Q44 13 56 12 Q56 15 50 17 Q40 17 34 19 Z" fill="#00B4D8" opacity=".13"/>
    <circle cx="28" cy="6.5" r="1.7" fill="white"/>
    <path d="M23.8 12 Q23.8 8, 28 8 Q32.2 8, 32.2 12 Z" fill="white"/>
    <rect x="23.2" y="12" width="9.6" height="6.8" rx="3.8" fill="#00B4D8"/>
    <rect x="25.2" y="13.2" width="1.5" height="4.8" rx=".75" fill="white" opacity=".38"/>
    <rect x="27.8" y="13.2" width="1.5" height="4.8" rx=".75" fill="white" opacity=".22"/>
    <rect x="21.8" y="18.8" width="12.4" height="1.7" rx=".85" fill="white"/>
    <path d="M23.8 20.5 L23.2 26.5 L32.8 26.5 L32.2 20.5 Z" fill="white"/>
    <path d="M23.2 26.5 L22.4 33 L33.6 33 L32.8 26.5 Z" fill="#00B4D8" opacity=".35" stroke="#00B4D8" stroke-width=".5"/>
    <path d="M22.4 33 L21.6 39.5 L34.4 39.5 L33.6 33 Z" fill="white"/>
    <path d="M21.6 39.5 L21.4 41.5 L34.6 41.5 L34.4 39.5 Z" fill="#0C1F3F" stroke="white" stroke-width=".5"/>
    <path d="M20 41.5 L36 41.5 L37.5 44 L18.5 44 Z" fill="white"/>
    <rect x="16.5" y="44" width="23" height="3.2" rx="1.2" fill="white"/>
  </g>
</svg>