<?xml version="1.0" encoding="utf-8"?>
<!-- Generator: Adobe Illustrator 28.1.0, SVG Export Plug-In . SVG Version: 6.00 Build 0)  -->
<svg version="1.1" id="Calque_1" xmlns="http://www.w3.org/2000/svg" xmlns:xlink="http://www.w3.org/1999/xlink" x="0px" y="0px"
	 viewBox="0 0 246 60" style="enable-background:new 0 0 246 60;" xml:space="preserve">
<style type="text/css">
	.st0{fill:#0A2240;}
	.st1{fill:#FF4D00;}
</style>
<g>
	<g>
		<path class="st0" d="M51.01,42.97c-0.67,0.48-1.51,0.69-2.51,0.65h-1.43c-2.21,0-3.78-0.39-4.72-1.17
			c-0.93-0.78-1.4-2.13-1.4-4.03V3.68c0-1.48,0.33-2.45,0.98-2.93c0.65-0.48,1.5-0.72,2.54-0.72l1.43,0.07
			c2.21,0,3.78,0.39,4.72,1.17c0.93,0.78,1.4,2.12,1.4,4.03v34.74C52.02,41.52,51.69,42.5,51.01,42.97z"/>
		<path class="st0" d="M55.47,15.07c0.56-0.56,1.26-0.85,2.08-0.85l2.73-0.06V8.17c0-1,0.21-1.8,0.62-2.41
			c0.41-0.61,1.01-0.95,1.79-1.04c0.78-0.13,1.6-0.19,2.47-0.19c2.21,0,3.77,0.39,4.68,1.17c0.91,0.78,1.37,2.15,1.37,4.1v4.16H77
			c2.04,0,3.21,0.67,3.51,2.02c0.22,0.87,0.32,1.58,0.32,2.15c0,2.86-1.24,4.29-3.71,4.29h-5.92v9.82c0,2.08,1.37,3.12,4.1,3.12
			c0.61,0,0.95-0.02,1.04-0.07l1.17-0.07c1.17,0,1.97,0.27,2.41,0.81c0.43,0.54,0.65,1.35,0.65,2.44c0,3.73-2.8,5.59-8.39,5.59
			c-3.95,0-6.92-0.91-8.91-2.73c-2-1.82-2.99-4.6-2.99-8.33v-10.6h-2.67c-0.82,0-1.53-0.29-2.11-0.88
			c-0.59-0.59-0.88-1.29-0.88-2.11v-2.21C54.62,16.34,54.91,15.63,55.47,15.07z"/>
		<path class="st0" d="M108.35,27.29c0,2.52,0.72,4.49,2.15,5.92c1.43,1.43,3.36,2.15,5.79,2.15c1.34,0,2.49-0.15,3.45-0.46
			c0.95-0.22,1.63-0.33,2.02-0.33c0.91,0,1.65,0.38,2.21,1.14c0.56,0.76,0.84,1.68,0.84,2.77c0,1.78-0.84,3.15-2.54,4.13
			c-1.69,0.98-4.03,1.46-7.02,1.46c-2.6,0-5.03-0.4-7.29-1.2c-2.26-0.8-4.19-1.94-5.79-3.41c-1.61-1.43-2.84-3.18-3.71-5.24
			c-0.87-2.06-1.3-4.3-1.3-6.73c0-2.73,0.44-5.19,1.33-7.38c0.89-2.19,2.18-4,3.87-5.43c1.52-1.39,3.32-2.43,5.4-3.12
			c2.08-0.69,4.36-1.04,6.83-1.04c3.04,0,5.42,0.54,7.16,1.63c1.73,1.08,2.6,2.56,2.6,4.42c0,1-0.23,1.83-0.68,2.5
			c-0.46,0.67-1.16,1.01-2.11,1.01c-0.39,0-0.83-0.06-1.3-0.19c-1.17-0.43-2.47-0.65-3.9-0.65c-2.34,0-4.26,0.74-5.76,2.21
			C109.1,22.92,108.35,24.87,108.35,27.29z"/>
		<path class="st0" d="M143.48,44.14c-5.16,0-9.26-1.52-12.3-4.55c-3.16-2.95-4.75-7.05-4.75-12.3c0-2.51,0.41-4.82,1.24-6.93
			c0.82-2.1,1.99-3.89,3.51-5.37c3.12-2.99,7.22-4.49,12.3-4.49c2.47,0,4.77,0.39,6.89,1.17c2.13,0.78,3.95,1.91,5.46,3.38
			c1.52,1.47,2.68,3.26,3.48,5.37c0.8,2.1,1.2,4.39,1.2,6.86c0,5.29-1.53,9.42-4.59,12.39C152.88,42.66,148.73,44.14,143.48,44.14z
			 M143.55,35.49c1.82,0,3.22-0.71,4.2-2.15c0.97-1.43,1.46-3.45,1.46-6.05c0-2.6-0.5-4.61-1.5-6.02c-1-1.41-2.41-2.11-4.23-2.11
			c-1.82,0-3.23,0.71-4.23,2.11c-1,1.41-1.5,3.41-1.5,6.02c0,2.6,0.51,4.62,1.53,6.05C140.3,34.78,141.73,35.49,143.55,35.49z"/>
		<path class="st0" d="M192.76,11.23c1.63-0.48,3.46-0.71,5.5-0.71c1.73,0,3.39,0.23,4.98,0.68c1.58,0.46,2.96,1.12,4.13,1.98
			c2.69,2.04,4.03,5.16,4.03,9.37v17.5c0,1.48-0.37,2.46-1.1,2.96c-0.74,0.5-1.58,0.73-2.54,0.68l-1.3-0.07
			c-2.21,0-3.78-0.39-4.72-1.17c-0.93-0.78-1.4-2.13-1.4-4.03V22.87c0-2.47-1.37-3.71-4.1-3.71c-0.48,0-1.06,0.14-1.76,0.42
			c-0.69,0.28-1.28,0.57-1.76,0.88c0.04,0.04,0.06,0.2,0.06,0.46v19.12c0,1.48-0.37,2.46-1.11,2.96c-0.74,0.5-1.58,0.73-2.54,0.68
			l-1.3-0.07c-2.21,0-3.78-0.39-4.71-1.17c-0.94-0.78-1.4-2.13-1.4-4.03V22.87c0-1.17-0.36-2.08-1.07-2.73
			c-0.72-0.65-1.72-0.98-3.02-0.98c-1.22,0-2.36,0.35-3.45,1.04v19.84c0,1.48-0.37,2.46-1.1,2.96c-0.74,0.5-1.58,0.73-2.54,0.68
			l-1.3-0.07c-2.21,0-3.79-0.39-4.72-1.17c-0.93-0.78-1.4-2.13-1.4-4.03V18.77c0-1.04,0.22-1.92,0.65-2.64
			c0.43-0.71,1.15-1.42,2.15-2.11c1.47-1.04,3.33-1.89,5.56-2.54c2.23-0.65,4.5-0.97,6.8-0.97c3.95,0,7.18,1,9.69,2.99
			C189.54,12.46,191.13,11.71,192.76,11.23z"/>
		<path class="st0" d="M218.45,39.1c-2.93-2.97-4.39-6.82-4.39-11.55c0-1.17,0.02-1.87,0.07-2.08c0.39-4.86,2.04-8.57,4.94-11.12
			c2.91-2.56,6.57-3.84,10.99-3.84c2.52,0,4.86,0.43,7.03,1.3c2.17,0.87,3.99,2.08,5.46,3.64c2.3,2.56,3.45,5.55,3.45,8.98
			c0,0.69-0.02,1.11-0.07,1.24c-0.13,1.43-0.63,2.54-1.5,3.32c-0.87,0.78-2.06,1.17-3.58,1.17h-16.78c0.39,1.6,1.55,3.01,3.48,4.23
			c1.93,1.21,4,1.82,6.21,1.82c1.82,0,3.47-0.22,4.94-0.65c0.48-0.17,1.11-0.26,1.89-0.26c1,0,1.71,0.35,2.15,1.04
			c0.43,0.69,0.65,1.52,0.65,2.47c0,1.69-0.69,2.99-2.08,3.9c-1.39,0.91-3.32,1.43-5.79,1.56l-2.6,0.13l-2.34-0.13
			C225.42,43.8,221.38,42.07,218.45,39.1z M224.27,23.33l11.25,0.13c0.04-1.3-0.46-2.44-1.5-3.41c-1.04-0.98-2.38-1.46-4.03-1.46
			c-1.34,0-2.54,0.41-3.58,1.24C225.38,20.64,224.66,21.81,224.27,23.33z"/>
		<path class="st0" d="M94.04,10.94c0-0.24-0.19-0.43-0.43-0.43c-0.09,0-0.18,0.03-0.25,0.08c0,0,0,0-0.01,0
			c-0.01,0.01-0.02,0.02-0.03,0.03c-1.25,1.21-2.85,1.82-4.81,1.82c-1.95,0-3.55-0.6-4.8-1.8c-0.01-0.01-0.03-0.03-0.04-0.04
			c0,0,0,0-0.01,0c-0.07-0.05-0.16-0.08-0.25-0.08c-0.24,0-0.43,0.19-0.43,0.43v27.48c0,1.91,0.47,3.25,1.4,4.03
			c0.93,0.78,2.5,1.17,4.72,1.17h1.43c1,0.04,1.83-0.17,2.5-0.65c0.67-0.48,1.01-1.45,1.01-2.93V10.94L94.04,10.94L94.04,10.94z"/>
		<path class="st0" d="M32.38,20.27c-0.27-0.93-0.55-1.87-0.76-2.59c0,0,0.01,0,0.01-0.01c-0.12-0.42-0.25-0.83-0.37-1.23
			c0-0.01-0.01-0.02-0.01-0.02v0c-1.13-3.76-2.15-6.94-3.07-9.56c-0.48-1.26-1.5-2.23-3.07-2.91c-1.57-0.68-3.55-1.01-5.95-1.01
			c-4.79,0-7.71,1.33-8.76,3.99L8.19,13.2L6.1,19.28l-2.09,6.21c-1.48,4.53-2.5,7.88-3.07,10.06c-0.17,0.83-0.51,1.5-0.73,2.11
			c-0.7,2.24,0.44,4.3,1.57,5.13c1.64,1.21,2.75,1.06,4.84,1.06c0.83,0,1.57-0.07,2.22-0.2c1.39-0.26,2.33-1.29,2.81-3.07
			l7.45-27.38h0.39c0.29,0.94,0.99,3.67,1.84,7.04c0.41,1.66,0.96,3.86,1.53,6.18C26.1,23.95,29.34,21.95,32.38,20.27z"/>
		<path class="st0" d="M37.73,39.21l-4.25-15.16c-0.06-0.21-0.28-0.97-0.56-1.92c-3.01,1.68-6.28,3.74-9.55,6.31
			c1.37,5.52,2.73,11.03,2.73,11.03c0.52,1.7,1.21,2.85,2.06,3.46c0.85,0.61,2.26,0.92,4.22,0.92c1.79,0,3.16-0.25,4.12-0.75
			c0.96-0.5,1.44-1.32,1.44-2.45C37.93,40.21,37.86,39.73,37.73,39.21z"/>
		<path class="st0" d="M89.64,57.27c0,1.5-1.09,2.59-3.21,2.59h-2.28c-0.66,0-1.13-0.47-1.13-1.13v-6.44c0-0.66,0.47-1.13,1.13-1.13
			h2.12c1.44,0,2.74,0.68,2.74,2.2c0,0.67-0.26,1.31-1.07,1.64C89.25,55.53,89.64,56.35,89.64,57.27z M85.06,54.45h1.21
			c0.44,0,0.75-0.38,0.75-0.83c0-0.51-0.31-0.75-0.75-0.75h-1.21V54.45z M87.65,57.09c0-0.48-0.24-1.08-1.22-1.08h-1.37v2.14h1.37
			C87.39,58.15,87.65,57.56,87.65,57.09z"/>
		<path class="st0" d="M97.77,52.11v4.68c0,1.99-1.62,3.16-3.53,3.16c-1.94,0-3.54-1.17-3.54-3.16v-4.68c0-0.55,0.44-0.99,1-0.99
			c0.57,0,1.05,0.45,1.05,0.99v4.66c0,1.12,0.76,1.48,1.5,1.48c0.75,0,1.49-0.36,1.49-1.48v-4.66c0-0.55,0.47-0.99,1.04-0.99
			C97.34,51.12,97.77,51.57,97.77,52.11z"/>
		<path class="st0" d="M104.14,51.88c0.3,0.31,0.46,0.57,0.46,0.88c0,0.46-0.36,0.81-0.84,0.81c-0.31,0-0.61-0.15-0.8-0.37
			c-0.31-0.27-0.55-0.36-0.91-0.36c-0.62,0-0.93,0.35-0.93,0.76c0,0.25,0.1,0.58,0.78,0.84l0.35,0.14c2.14,0.81,2.81,1.58,2.81,2.71
			c0,1.79-1.79,2.66-3.25,2.66c-0.91,0-1.87-0.32-2.54-0.98c-0.15-0.19-0.45-0.55-0.45-1.02c0-0.41,0.27-0.86,0.83-0.86
			c0.44,0,0.73,0.3,0.96,0.56c0.45,0.45,0.87,0.52,1.19,0.52c0.46,0,1.16-0.16,1.16-0.88c0-0.48-0.27-0.76-1.21-1.13l-0.39-0.15
			c-1.31-0.51-2.3-1.12-2.3-2.45c0-1.54,1.28-2.49,2.89-2.49C103.01,51.07,103.59,51.4,104.14,51.88z"/>
		<path class="st0" d="M108.15,52.14v6.74c0,0.56-0.48,1.04-1.04,1.04c-0.57,0-1.05-0.49-1.05-1.04v-6.74
			c0-0.56,0.47-1.04,1.05-1.04C107.66,51.09,108.15,51.58,108.15,52.14z"/>
		<path class="st0" d="M116.77,52.16v6.78c0,0.66-0.42,1.01-0.97,1.01c-0.45,0-0.81-0.25-1.06-0.6l-3.26-4.5v4.05
			c0,0.56-0.46,1.05-1.03,1.05c-0.58,0-1.06-0.49-1.06-1.05v-6.79c0-0.65,0.42-0.99,0.98-0.99c0.44,0,0.8,0.23,1.04,0.6l3.26,4.49
			v-4.04c0-0.56,0.46-1.04,1.03-1.04C116.31,51.12,116.77,51.6,116.77,52.16z"/>
		<path class="st0" d="M123.2,58.08c0.5,0,0.91,0.4,0.91,0.88c0,0.5-0.41,0.9-0.91,0.9h-4.05c-0.66,0-1.13-0.47-1.13-1.13v-6.44
			c0-0.66,0.47-1.13,1.13-1.13h3.93c0.5,0,0.91,0.4,0.91,0.87c0,0.51-0.41,0.91-0.91,0.91h-3.02v1.7h1.88c0.5,0,0.9,0.4,0.9,0.85
			c0,0.47-0.4,0.86-0.9,0.86h-1.88v1.74H123.2z"/>
		<path class="st0" d="M130.1,51.88c0.3,0.31,0.46,0.57,0.46,0.88c0,0.46-0.36,0.81-0.85,0.81c-0.31,0-0.61-0.15-0.79-0.37
			c-0.31-0.27-0.55-0.36-0.91-0.36c-0.62,0-0.93,0.35-0.93,0.76c0,0.25,0.1,0.58,0.78,0.84l0.35,0.14c2.14,0.81,2.81,1.58,2.81,2.71
			c0,1.79-1.79,2.66-3.25,2.66c-0.91,0-1.87-0.32-2.54-0.98c-0.15-0.19-0.45-0.55-0.45-1.02c0-0.41,0.27-0.86,0.83-0.86
			c0.44,0,0.73,0.3,0.96,0.56c0.45,0.45,0.87,0.52,1.19,0.52c0.46,0,1.16-0.16,1.16-0.88c0-0.48-0.27-0.76-1.21-1.13l-0.39-0.15
			c-1.31-0.51-2.3-1.12-2.3-2.45c0-1.54,1.28-2.49,2.89-2.49C128.97,51.07,129.55,51.4,130.1,51.88z"/>
		<path class="st0" d="M137.08,51.88c0.3,0.31,0.46,0.57,0.46,0.88c0,0.46-0.36,0.81-0.85,0.81c-0.31,0-0.61-0.15-0.8-0.37
			c-0.31-0.27-0.55-0.36-0.91-0.36c-0.62,0-0.93,0.35-0.93,0.76c0,0.25,0.1,0.58,0.78,0.84l0.35,0.14c2.14,0.81,2.81,1.58,2.81,2.71
			c0,1.79-1.79,2.66-3.25,2.66c-0.91,0-1.87-0.32-2.54-0.98c-0.15-0.19-0.45-0.55-0.45-1.02c0-0.41,0.27-0.86,0.83-0.86
			c0.44,0,0.73,0.3,0.96,0.56c0.45,0.45,0.87,0.52,1.19,0.52c0.46,0,1.16-0.16,1.16-0.88c0-0.48-0.27-0.76-1.21-1.13l-0.39-0.15
			c-1.31-0.51-2.3-1.12-2.3-2.45c0-1.54,1.28-2.49,2.89-2.49C135.95,51.07,136.53,51.4,137.08,51.88z"/>
		<path class="st0" d="M147.14,51.88c0.3,0.31,0.46,0.57,0.46,0.88c0,0.46-0.36,0.81-0.85,0.81c-0.31,0-0.61-0.15-0.8-0.37
			c-0.31-0.27-0.55-0.36-0.91-0.36c-0.62,0-0.93,0.35-0.93,0.76c0,0.25,0.1,0.58,0.78,0.84l0.35,0.14c2.14,0.81,2.81,1.58,2.81,2.71
			c0,1.79-1.79,2.66-3.25,2.66c-0.91,0-1.87-0.32-2.54-0.98c-0.15-0.19-0.45-0.55-0.45-1.02c0-0.41,0.27-0.86,0.83-0.86
			c0.44,0,0.73,0.3,0.96,0.56c0.45,0.45,0.87,0.52,1.19,0.52c0.46,0,1.16-0.16,1.16-0.88c0-0.48-0.27-0.76-1.21-1.13l-0.39-0.15
			c-1.31-0.51-2.3-1.12-2.3-2.45c0-1.54,1.28-2.49,2.89-2.49C146.01,51.07,146.59,51.4,147.14,51.88z"/>
		<path class="st0" d="M156.08,58.31c0,0.52-0.35,0.86-0.93,1.21c-0.47,0.25-1.11,0.44-1.92,0.44c-2.21,0-4.43-1.82-4.43-4.44
			c0-2.62,2.24-4.44,4.39-4.44c0.85,0,1.49,0.2,1.96,0.45c0.55,0.34,0.92,0.68,0.92,1.19c0,0.6-0.47,0.92-0.94,0.92
			c-0.39,0-0.65-0.19-0.77-0.26c-0.09-0.04-0.45-0.36-1.13-0.36c-1.26,0-2.29,1.12-2.29,2.5c0,1.38,1.01,2.5,2.31,2.5
			c0.65,0,1.02-0.32,1.11-0.36c0.12-0.07,0.37-0.26,0.77-0.26C155.61,57.39,156.08,57.71,156.08,58.31z"/>
		<path class="st0" d="M163.38,51.12c0.56,0,1.02,0.47,1.02,1.03v6.72c0,0.56-0.46,1.03-1.02,1.03c-0.57,0-1.02-0.47-1.02-1.03
			v-2.44h-3.31v2.44c0,0.56-0.45,1.03-1.01,1.03c-0.57,0-1.03-0.47-1.03-1.03v-6.72c0-0.56,0.46-1.03,1.03-1.03
			c0.56,0,1.01,0.47,1.01,1.03v2.54h3.31v-2.54C162.36,51.59,162.81,51.12,163.38,51.12z"/>
		<path class="st0" d="M174.27,55.51c0,2.62-2.11,4.44-4.38,4.44c-2.25,0-4.36-1.82-4.36-4.44c0-2.62,2.11-4.44,4.36-4.44
			C172.15,51.07,174.27,52.89,174.27,55.51z M167.66,55.51c0,1.52,0.97,2.5,2.23,2.5c1.27,0,2.24-0.98,2.24-2.5
			c0-1.52-0.95-2.5-2.24-2.5C168.63,53.01,167.66,53.99,167.66,55.51z"/>
		<path class="st0" d="M184.01,55.51c0,2.62-2.11,4.44-4.38,4.44c-2.25,0-4.37-1.82-4.37-4.44c0-2.62,2.11-4.44,4.37-4.44
			C181.89,51.07,184.01,52.89,184.01,55.51z M177.4,55.51c0,1.52,0.97,2.5,2.23,2.5c1.27,0,2.24-0.98,2.24-2.5
			c0-1.52-0.95-2.5-2.24-2.5C178.37,53.01,177.4,53.99,177.4,55.51z"/>
		<path class="st0" d="M190.01,58.06c0.49,0,0.9,0.4,0.9,0.91c0,0.5-0.41,0.9-0.9,0.9h-3.76c-0.66,0-1.13-0.47-1.13-1.13v-6.57
			c0-0.57,0.46-1.04,1.03-1.04c0.56,0,1.01,0.47,1.01,1.04v5.9H190.01z"/>
		<path class="st0" d="M207.73,58.94c0,0.52-0.4,0.96-0.93,0.96c-0.32,0-0.58-0.15-0.75-0.37l-2.06-2.64h-0.93v2.05
			c0,0.56-0.45,1.02-1.01,1.02c-0.57,0-1.03-0.46-1.03-1.02v-6.65c0-0.66,0.47-1.13,1.13-1.13h2.28c1.94,0,3.2,1.32,3.2,2.89
			c0,1.08-0.61,2.03-1.62,2.51l1.48,1.77C207.6,58.49,207.73,58.69,207.73,58.94z M203.05,55.15h1.26c0.71,0,1.33-0.19,1.33-1.11
			c0-0.93-0.62-1.14-1.33-1.14h-1.26V55.15z"/>
		<path class="st0" d="M213.91,58.08c0.5,0,0.91,0.4,0.91,0.88c0,0.5-0.41,0.9-0.91,0.9h-4.06c-0.66,0-1.13-0.47-1.13-1.13v-6.44
			c0-0.66,0.47-1.13,1.13-1.13h3.93c0.5,0,0.91,0.4,0.91,0.87c0,0.51-0.41,0.91-0.91,0.91h-3.02v1.7h1.88c0.5,0,0.9,0.4,0.9,0.85
			c0,0.47-0.4,0.86-0.9,0.86h-1.88v1.74H213.91z"/>
		<path class="st0" d="M223.13,52.16v6.78c0,0.66-0.42,1.01-0.97,1.01c-0.45,0-0.81-0.25-1.06-0.6l-3.26-4.5v4.05
			c0,0.56-0.46,1.05-1.03,1.05c-0.58,0-1.06-0.49-1.06-1.05v-6.79c0-0.65,0.42-0.99,0.98-0.99c0.44,0,0.8,0.23,1.04,0.6l3.26,4.49
			v-4.04c0-0.56,0.46-1.04,1.03-1.04C222.67,51.12,223.13,51.6,223.13,52.16z"/>
		<path class="st0" d="M231.75,52.16v6.78c0,0.66-0.42,1.01-0.97,1.01c-0.45,0-0.81-0.25-1.06-0.6l-3.26-4.5v4.05
			c0,0.56-0.46,1.05-1.03,1.05c-0.58,0-1.06-0.49-1.06-1.05v-6.79c0-0.65,0.42-0.99,0.98-0.99c0.43,0,0.79,0.23,1.04,0.6l3.26,4.49
			v-4.04c0-0.56,0.46-1.04,1.03-1.04C231.29,51.12,231.75,51.6,231.75,52.16z"/>
		<path class="st0" d="M238.18,58.08c0.5,0,0.91,0.4,0.91,0.88c0,0.5-0.41,0.9-0.91,0.9h-4.05c-0.66,0-1.13-0.47-1.13-1.13v-6.44
			c0-0.66,0.47-1.13,1.13-1.13h3.93c0.5,0,0.91,0.4,0.91,0.87c0,0.51-0.41,0.91-0.91,0.91h-3.02v1.7h1.88c0.5,0,0.89,0.4,0.89,0.85
			c0,0.47-0.4,0.86-0.89,0.86h-1.88v1.74H238.18z"/>
		<path class="st0" d="M245.08,51.88c0.3,0.31,0.46,0.57,0.46,0.88c0,0.46-0.36,0.81-0.84,0.81c-0.31,0-0.61-0.15-0.8-0.37
			c-0.31-0.27-0.55-0.36-0.91-0.36c-0.62,0-0.93,0.35-0.93,0.76c0,0.25,0.1,0.58,0.78,0.84l0.35,0.14c2.14,0.81,2.81,1.58,2.81,2.71
			c0,1.79-1.79,2.66-3.25,2.66c-0.91,0-1.87-0.32-2.54-0.98c-0.15-0.19-0.45-0.55-0.45-1.02c0-0.41,0.27-0.86,0.83-0.86
			c0.43,0,0.73,0.3,0.96,0.56c0.45,0.45,0.87,0.52,1.2,0.52c0.46,0,1.16-0.16,1.16-0.88c0-0.48-0.27-0.76-1.21-1.13l-0.39-0.15
			c-1.31-0.51-2.3-1.12-2.3-2.45c0-1.54,1.28-2.49,2.89-2.49C243.95,51.07,244.53,51.4,245.08,51.88z"/>
	</g>
	<g>
		<path class="st1" d="M88.51,1.35c1.39,0,2.53,0.43,3.41,1.3c0.88,0.86,1.32,1.96,1.32,3.28c0,1.32-0.44,2.42-1.32,3.28
			c-0.88,0.87-2.02,1.3-3.41,1.3c-1.39,0-2.53-0.43-3.41-1.3c-0.88-0.86-1.32-1.96-1.32-3.28c0-1.32,0.44-2.42,1.32-3.28
			C85.99,1.79,87.12,1.35,88.51,1.35z"/>
		<path class="st1" d="M39.92,15.78c0-0.56-0.46-1.02-1.02-1.02c-0.1,0-0.2,0.02-0.29,0.05c0,0,0,0,0,0
			C26.32,17.97,6.52,28.82,1.1,36.03c-0.13,0.16-0.25,0.33-0.36,0.51c-0.02,0.03-0.04,0.06-0.06,0.09c0,0,0,0,0,0
			C0.25,37.35,0,38.18,0,39.07c0,2.64,2.14,4.77,4.77,4.77c1.83,0,3.42-1.03,4.22-2.54c0,0,0.01,0,0.01,0
			c9.12-14.04,21.68-20.39,30.28-24.58c0.02-0.01,0.04-0.02,0.06-0.03c0.01,0,0.02-0.01,0.03-0.01v0
			C39.7,16.51,39.92,16.17,39.92,15.78z"/>
		<path class="st1" d="M193.68,55.64c0-1.15,0.96-2.11,2.13-2.11c1.15,0,2.11,0.96,2.11,2.11c0,1.2-0.96,2.13-2.11,2.13
			C194.64,57.78,193.68,56.84,193.68,55.64z"/>
	</g>
</g>
</svg>
